<svg width="51" height="43" viewBox="0 0 51 43" fill="none" xmlns="http://www.w3.org/2000/svg">
<path d="M42.5156 31.7004L42.4535 31.9582H39.0927H20.843H17.1755L11.335 5.01053L10.9079 3.04007H8.89171H3.21924V2.78223H11.4224L12.1349 6.06963L12.562 8.04007H14.5782H48.2135L44.3528 24.0715H19.1365H16.0366L16.6932 27.101L17.2629 29.7299L17.69 31.7004H19.7062H42.5156ZM17.8227 35.0707L19.1459 36.294C19.5779 36.6933 19.8075 37.2071 19.8075 37.7444C19.8075 38.7702 18.8826 39.845 17.4327 39.845C15.9829 39.845 15.058 38.7702 15.058 37.7444C15.058 37.0424 15.4614 36.3523 16.1993 35.9518L17.8227 35.0707ZM11.337 2.38818L11.3371 2.38832L11.337 2.38818ZM44.2613 24.4514C44.2614 24.4512 44.2614 24.451 44.2615 24.4508L44.2613 24.4514ZM42.0188 35.1576L43.5876 35.8763C44.4165 36.256 44.8778 36.9966 44.8778 37.7444C44.8778 38.7702 43.9529 39.845 42.503 39.845C41.0531 39.845 40.1282 38.7702 40.1282 37.7444C40.1282 37.2071 40.3579 36.6933 40.7898 36.2939L42.0188 35.1576Z" stroke="#F2B5D4" stroke-width="5"/>
</svg>
