<svg width="52" height="43" viewBox="0 0 52 43" fill="none" xmlns="http://www.w3.org/2000/svg">
<path d="M43.0515 31.7213L42.9991 31.9372H39.606H21.203H17.5011L11.6142 5.00174L11.1808 3.019H9.1513H3.43116V2.80317H11.7069L12.4227 6.07831L12.8561 8.06102H14.8856H48.7972L44.9143 24.0504H19.4822H16.3507L17.0193 27.1096L17.5938 29.7386L18.0271 31.7213H20.0567H43.0515ZM18.1595 35.088L19.4994 36.3164C19.9335 36.7145 20.1588 37.2209 20.1588 37.7443C20.1588 38.7381 19.2466 39.8239 17.7641 39.8239C16.2816 39.8239 15.3694 38.7381 15.3694 37.7443C15.3694 37.0616 15.7653 36.3766 16.5125 35.9744L18.1595 35.088ZM11.6181 2.39699L11.6183 2.39781C11.6182 2.39749 11.6182 2.39717 11.6181 2.39685L11.6181 2.39699ZM42.5541 35.1754L44.146 35.8986C44.987 36.2807 45.4398 37.0174 45.4398 37.7443C45.4398 38.7381 44.5275 39.8239 43.045 39.8239C41.5625 39.8239 40.6503 38.7381 40.6503 37.7443C40.6503 37.2209 40.8756 36.7144 41.3097 36.3164L42.5541 35.1754Z" stroke="#F2B5D4" stroke-width="5.04202"/>
</svg>
